<?xml version="1.0" standalone="no"?>
<!DOCTYPE svg PUBLIC "-//W3C//DTD SVG 20010904//EN"
 "http://www.w3.org/TR/2001/REC-SVG-20010904/DTD/svg10.dtd">
<svg version="1.0" xmlns="http://www.w3.org/2000/svg"
 width="2614.000000pt" height="2614.000000pt" viewBox="0 0 2614.000000 2614.000000"
 preserveAspectRatio="xMidYMid meet">
<metadata>
Created by potrace 1.14, written by Peter Selinger 2001-2017
</metadata>
<g transform="translate(0.000000,2614.000000) scale(0.100000,-0.100000)"
fill="#000000" stroke="none">
<path d="M12560 25013 c-2078 -118 -3958 -1086 -5116 -2633 -721 -962 -1130
-2067 -1250 -3370 -19 -208 -29 -881 -16 -1050 9 -111 9 -108 11 110 12 1900
660 3547 1872 4759 1402 1402 3484 2121 5579 1925 1330 -124 2562 -598 3603
-1387 249 -189 434 -352 682 -601 239 -239 386 -404 566 -636 966 -1243 1532
-2777 1719 -4659 11 -112 21 -224 21 -250 1 -28 4 -36 6 -21 3 14 0 124 -6
245 -58 1106 -269 2131 -625 3033 -556 1411 -1464 2562 -2644 3351 -1045 699
-2238 1097 -3537 1181 -143 9 -724 11 -865 3z"/>
<path d="M14140 23785 c-338 -41 -617 -122 -1210 -350 -518 -200 -831 -302
-1207 -395 -870 -214 -1877 -279 -3243 -209 -118 6 -229 9 -245 7 -33 -3 292
-64 556 -103 459 -68 796 -95 1259 -102 704 -10 1219 45 1795 192 427 109 654
193 1432 528 539 232 856 322 1268 358 128 11 569 7 675 -6 58 -7 -66 23 -185
45 -201 37 -351 50 -575 49 -118 -1 -262 -7 -320 -14z"/>
<path d="M15435 23739 c-109 -13 -110 -24 -2 -25 81 0 114 -5 158 -22 330
-130 658 -631 1024 -1562 266 -677 520 -1465 1015 -3150 314 -1069 498 -1675
507 -1666 12 12 -210 1155 -318 1641 -565 2535 -1357 4350 -2059 4714 -121 63
-215 83 -325 70z"/>
<path d="M12716 18829 c-376 -24 -689 -93 -876 -192 -196 -103 -562 -327 -605
-369 -15 -15 451 -2 645 18 199 20 310 16 1184 -51 318 -25 640 -48 715 -52
121 -7 97 -9 -229 -14 -356 -7 -466 -13 -795 -44 -815 -79 -1588 -248 -2039
-447 -49 -21 -98 -44 -108 -49 -31 -17 -13 -22 19 -6 49 25 273 96 418 131
899 222 2376 310 3223 191 171 -24 486 -84 555 -105 36 -11 69 -26 74 -33 14
-17 37 -932 29 -1145 -17 -446 -76 -812 -176 -1091 -33 -95 -72 -142 -175
-215 -233 -166 -703 -338 -1190 -435 -973 -195 -1781 -106 -2168 239 -95 85
-232 280 -325 466 -218 433 -385 1162 -357 1552 4 50 5 92 2 92 -14 0 -29
-187 -29 -350 2 -712 266 -1526 604 -1858 105 -103 177 -154 313 -222 197 -98
407 -157 705 -197 167 -22 638 -25 830 -5 710 75 1351 263 1725 506 151 99
266 227 281 315 3 20 26 98 49 173 97 305 144 677 145 1148 1 188 -5 273 -47
674 l-48 458 -96 49 c-195 97 -397 152 -654 178 -184 19 -179 19 80 14 227 -4
662 9 825 25 l65 7 -100 56 c-755 426 -1653 640 -2469 588z m1361 -666 c-20
-2 -52 -2 -70 0 -17 2 0 4 38 4 39 0 53 -2 32 -4z"/>
<path d="M7500 18345 c-224 -31 -413 -87 -607 -180 -313 -150 -560 -371 -624
-560 l-17 -50 -129 -33 c-276 -70 -640 -177 -893 -262 -292 -98 -583 -206
-588 -217 -1 -5 -10 -21 -20 -38 -18 -30 -18 -33 15 -195 176 -855 195 -929
345 -1335 130 -349 270 -638 408 -843 76 -112 100 -131 265 -205 288 -130 592
-205 975 -238 174 -15 658 -6 840 15 376 45 708 129 909 231 39 19 71 32 71
28 0 -18 -205 -388 -307 -553 -51 -84 -81 -164 -94 -255 -44 -322 220 -578
699 -675 200 -40 514 -42 712 -4 l95 19 -165 7 c-440 18 -831 148 -1026 342
-75 75 -114 150 -114 219 1 59 48 167 128 290 329 507 737 1400 1084 2372 59
164 148 427 148 435 0 8 -77 -128 -211 -371 -105 -193 -231 -436 -788 -1520
-83 -163 -157 -296 -164 -297 -6 0 -52 -16 -102 -35 -261 -101 -699 -154
-1195 -144 -384 7 -646 41 -955 122 -188 49 -292 87 -454 167 l-143 71 -46 71
c-73 114 -154 282 -240 499 -100 251 -148 390 -267 777 -229 741 -261 835
-284 834 -25 -1 -25 3 -6 36 10 18 14 20 15 8 0 -9 4 -19 9 -22 5 -3 82 22
172 55 887 328 1768 556 2471 640 221 26 626 36 805 20 321 -30 617 -125 794
-255 156 -115 241 -423 257 -926 5 -186 7 -207 16 -155 5 33 9 191 10 350 1
265 -1 300 -22 403 -51 253 -115 359 -282 471 -206 138 -434 216 -775 268
-170 26 -761 25 -980 0 -259 -30 -741 -112 -900 -152 -11 -3 5 8 36 24 133 71
467 146 842 190 606 72 1065 43 1455 -90 120 -41 328 -136 415 -190 27 -17 51
-28 54 -26 7 8 -46 129 -89 202 -212 358 -598 598 -1065 660 -132 18 -365 18
-493 0z"/>
<path d="M15196 17731 l-49 -6 164 -87 c951 -504 2196 -857 3359 -953 238 -20
729 -31 715 -17 -18 18 -274 152 -444 231 -903 424 -1981 714 -2996 805 -242
22 -665 37 -749 27z"/>
<path d="M12735 17683 c-514 -18 -1121 -215 -1382 -447 -96 -86 -137 -177
-102 -226 9 -13 10 -12 5 3 -37 115 295 265 789 356 529 98 1058 102 1483 10
279 -60 564 -194 762 -357 30 -25 64 -53 74 -61 19 -16 19 -15 0 14 -220 353
-611 591 -1107 675 -99 17 -420 45 -437 38 -3 -1 -41 -3 -85 -5z"/>
<path d="M10541 17294 c0 -11 3 -14 6 -6 3 7 2 16 -1 19 -3 4 -6 -2 -5 -13z"/>
<path d="M7880 17274 c-345 -44 -655 -183 -874 -394 -184 -177 -266 -340 -266
-532 0 -117 10 -139 27 -57 22 113 83 220 182 318 204 205 497 343 871 413
155 29 442 31 574 5 266 -54 487 -170 676 -356 39 -37 70 -67 70 -64 0 2 -16
36 -36 76 -95 189 -270 364 -464 462 -175 88 -333 125 -560 130 -91 2 -181 1
-200 -1z"/>
<path d="M20458 17050 c-307 -64 -645 -256 -1033 -586 -159 -135 -181 -161
-65 -81 686 479 1185 635 1520 476 45 -21 86 -53 140 -107 126 -128 209 -321
254 -587 87 -513 7 -1263 -215 -2040 -223 -779 -491 -1358 -791 -1712 -365
-430 -793 -558 -1305 -391 -55 18 -99 30 -97 27 6 -11 212 -95 288 -118 628
-192 1208 158 1678 1010 231 420 476 1109 592 1666 77 368 109 669 109 1018 0
569 -108 958 -338 1213 -174 193 -450 273 -737 212z"/>
<path d="M13320 17021 c-7 -19 -35 -66 -60 -105 -143 -218 -382 -311 -635
-246 -157 40 -275 134 -346 274 l-39 78 0 -50 c0 -60 28 -155 63 -215 59 -101
198 -198 332 -232 77 -20 221 -19 299 1 200 51 347 211 392 423 18 87 15 122
-6 72z"/>
<path d="M8382 16847 c-20 -86 -86 -208 -143 -265 -127 -127 -339 -172 -530
-113 -70 22 -148 71 -186 115 -38 45 -82 143 -89 199 -4 26 -8 46 -11 44 -12
-13 -20 -119 -11 -171 34 -218 252 -368 513 -353 235 14 415 152 470 362 16
62 21 220 7 229 -4 2 -13 -19 -20 -47z"/>
<path d="M14487 16801 c-43 -97 -222 -212 -442 -286 -594 -198 -1667 -291
-2252 -195 -390 64 -577 192 -599 409 -4 34 -8 60 -10 58 -2 -1 -7 -29 -12
-62 -21 -130 16 -224 132 -340 65 -65 101 -91 181 -132 176 -89 369 -144 635
-180 166 -22 634 -25 805 -5 556 64 1005 202 1301 400 151 102 260 232 279
335 9 48 3 47 -18 -2z"/>
<path d="M18185 16525 c19 -120 37 -378 42 -585 16 -685 -99 -1251 -362 -1785
-262 -531 -657 -987 -1228 -1416 -386 -291 -777 -528 -1557 -944 -789 -421
-1009 -557 -1231 -762 -114 -106 -209 -253 -224 -348 -6 -39 -5 -38 17 15 35
81 77 138 162 217 182 170 374 274 1216 658 760 347 1105 530 1525 810 326
218 556 406 801 658 448 459 726 940 879 1522 75 281 105 536 105 880 0 319
-24 552 -90 875 -27 133 -66 277 -55 205z"/>
<path d="M20414 16412 c-139 -49 -279 -156 -410 -313 -163 -195 -350 -520
-477 -829 -63 -153 -118 -300 -113 -300 2 0 23 35 47 78 128 235 327 544 458
712 85 109 268 298 345 357 146 110 283 147 384 103 300 -129 374 -873 155
-1553 -82 -254 -173 -446 -318 -667 -113 -171 -196 -273 -344 -420 -236 -234
-506 -414 -835 -557 -111 -48 -90 -51 63 -7 760 218 1341 761 1634 1530 139
363 196 790 152 1131 -48 370 -182 616 -390 719 -71 35 -86 39 -174 42 -85 2
-105 0 -177 -26z"/>
<path d="M9107 16332 c-68 -156 -483 -271 -1176 -326 -559 -45 -964 4 -1151
138 l-52 37 19 -33 c37 -67 154 -171 248 -220 356 -186 890 -218 1419 -87 406
101 729 325 714 496 l-3 36 -18 -41z"/>
<path d="M18730 16288 c0 -3 18 -79 40 -169 313 -1298 272 -2680 -120 -4047
-549 -1910 -1771 -3733 -3350 -4997 -1007 -806 -2104 -1340 -3145 -1530 -1063
-194 -2049 -44 -2905 443 -613 348 -1167 880 -1626 1562 -541 803 -954 1779
-1264 2983 -58 227 -146 613 -171 751 -7 38 -15 64 -16 59 -5 -15 51 -342 107
-623 204 -1028 489 -1883 884 -2655 518 -1012 1168 -1751 1961 -2228 911 -549
1984 -723 3133 -507 1521 286 3111 1265 4370 2693 1430 1623 2293 3614 2422
5585 14 213 14 754 0 957 -38 562 -124 1058 -277 1594 -32 112 -43 146 -43
129z"/>
<path d="M19802 15190 c179 -198 296 -389 332 -541 50 -207 -8 -410 -181 -640
-131 -175 -315 -345 -660 -612 -84 -65 -153 -119 -153 -122 0 -4 203 64 280
95 385 153 731 442 869 725 108 220 111 467 8 671 -99 196 -295 377 -511 473
l-48 21 64 -70z"/>
<path d="M19365 14810 c19 -28 47 -88 61 -133 24 -72 27 -99 27 -212 1 -187
-19 -283 -154 -773 -39 -140 -68 -257 -64 -260 10 -10 134 123 205 219 155
208 255 515 235 719 -9 91 -41 204 -76 271 -51 96 -163 195 -242 214 l-27 7
35 -52z"/>
<path d="M11535 14368 c36 -65 48 -161 42 -322 -15 -403 -178 -651 -520 -792
-43 -17 -74 -35 -68 -39 6 -3 51 -9 99 -12 283 -17 539 157 633 431 91 263 37
571 -126 725 -69 65 -93 68 -60 9z"/>
<path d="M10040 13874 c-152 -30 -248 -74 -315 -145 -157 -168 -3 -369 330
-433 183 -34 183 -34 50 40 -136 75 -170 98 -237 163 -62 59 -64 90 -10 126
64 42 181 67 322 69 308 2 555 -127 685 -359 20 -36 38 -65 39 -65 5 0 -15
115 -26 150 -64 204 -256 371 -498 435 -64 16 -287 29 -340 19z"/>
<path d="M10235 12819 c-683 -59 -1323 -265 -1790 -578 -444 -296 -707 -630
-812 -1030 -32 -120 -43 -392 -21 -506 l14 -70 18 95 c116 594 570 1015 1394
1289 383 128 786 206 1276 247 227 19 720 22 911 5 583 -51 1079 -190 1430
-401 236 -142 439 -344 560 -555 49 -86 53 -83 30 25 -52 249 -180 480 -379
687 -168 175 -332 298 -556 417 -374 197 -864 334 -1345 376 -141 12 -586 11
-730 -1z"/>
<path d="M10715 12048 c-216 -24 -474 -93 -683 -183 l-129 -55 -169 0 c-282 0
-519 -36 -762 -116 -257 -84 -444 -192 -527 -305 -53 -72 -70 -134 -53 -192
l12 -42 7 57 c14 118 113 197 344 271 270 86 450 110 876 113 l336 3 74 29
c413 164 899 243 1310 213 413 -30 747 -134 1009 -315 44 -30 80 -51 80 -47 0
20 -217 215 -301 270 -244 160 -548 264 -881 300 -114 13 -429 12 -543 -1z"/>
<path d="M19136 11691 c-75 -83 -174 -675 -235 -1411 -47 -553 -69 -1052 -78
-1725 -21 -1760 152 -3377 422 -3930 55 -112 101 -174 56 -75 -121 263 -181
854 -222 2170 -16 514 -24 3543 -10 4035 17 624 38 869 80 934 8 13 12 13 28
0 16 -13 17 -13 4 4 -17 22 -24 21 -45 -2z"/>
<path d="M6176 11475 c90 -408 301 -804 555 -1039 253 -234 515 -296 757 -178
97 47 260 225 298 326 7 18 4 17 -25 -5 -188 -140 -274 -180 -403 -187 -179
-9 -302 58 -528 286 -149 151 -300 336 -504 617 -63 88 -125 171 -136 185
l-21 25 7 -30z"/>
<path d="M11145 11483 c-217 -9 -584 -58 -890 -118 -94 -18 -189 -28 -345 -35
-751 -35 -1094 -108 -1259 -268 -31 -30 -41 -43 -23 -28 158 123 460 166 1178
166 l302 0 280 50 c344 60 583 95 795 116 215 21 562 21 731 0 123 -16 292
-49 303 -59 8 -9 -129 -85 -245 -137 -528 -233 -1448 -483 -2062 -560 -466
-58 -869 -15 -1109 117 -78 43 -197 155 -252 237 -34 49 -40 55 -35 31 11 -51
83 -187 130 -247 273 -344 956 -460 1755 -297 572 116 1149 341 1556 606 155
101 282 211 312 268 l16 30 -22 -19 c-22 -20 -22 -20 -84 4 -118 44 -282 88
-407 109 -201 34 -393 44 -625 34z"/>
<path d="M6161 11374 c0 -11 3 -14 6 -6 3 7 2 16 -1 19 -3 4 -6 -2 -5 -13z"/>
<path d="M13493 10003 c157 -317 208 -572 152 -759 -50 -167 -219 -302 -480
-383 -334 -103 -710 -138 -1685 -156 -782 -14 -1021 -26 -1630 -80 -558 -50
-711 -58 -935 -52 -382 10 -614 85 -785 256 -207 208 -300 515 -331 1096 -5
80 -17 -122 -18 -292 -2 -303 32 -498 119 -680 153 -324 409 -488 870 -560
166 -26 657 -24 1085 5 510 35 611 41 950 52 962 32 1123 39 1405 61 522 40
960 144 1195 281 209 122 319 265 352 457 37 211 -48 479 -247 779 -44 67 -83
123 -87 126 -5 2 27 -66 70 -151z"/>
<path d="M8086 4538 c255 -509 601 -1053 913 -1433 547 -668 1128 -1144 1812
-1485 570 -284 1158 -442 1827 -491 209 -15 743 -6 947 15 1087 117 2217 514
3330 1171 877 518 1839 1307 2258 1853 70 91 142 210 133 219 -3 3 -6 1 -6 -4
0 -24 -130 -185 -244 -302 -600 -615 -1707 -1376 -2701 -1857 -1819 -879
-3497 -1095 -4915 -632 -978 319 -1841 946 -2605 1893 -251 311 -553 752 -769
1123 -26 45 -50 82 -52 82 -2 0 30 -69 72 -152z"/>
</g>
</svg>
